<svg xmlns="http://www.w3.org/2000/svg" width="27.235" height="27.235" viewBox="0 0 27.235 27.235"><defs><style>.a{fill:#2a3477;}</style></defs><path class="a" d="M12.809,9.4A3.344,3.344,0,0,0,9.4,6,3.344,3.344,0,0,0,6,9.4a3.344,3.344,0,0,0,3.4,3.4A3.344,3.344,0,0,0,12.809,9.4Zm-3.4,2.27a2.27,2.27,0,1,1,2.27-2.27A2.276,2.276,0,0,1,9.4,11.674Z" transform="translate(0.809 0.809)"/><path class="a" d="M26.1,17.022H24.739l.908-.908a1.1,1.1,0,0,0,0-1.589l-1.589-1.589a1.1,1.1,0,0,0-1.589,0l-.908.908V12.483a1.072,1.072,0,0,0-1.135-1.135v-3.4a1.072,1.072,0,0,0-1.135-1.135H18.5l.681-.681a1.1,1.1,0,0,0,0-1.589L15.887,1.362a1.1,1.1,0,0,0-1.589,0l-.681.681V1.135A1.072,1.072,0,0,0,12.483,0H7.944A1.072,1.072,0,0,0,6.809,1.135v.794l-.567-.567a1.1,1.1,0,0,0-1.589,0L1.475,4.539a1.1,1.1,0,0,0,0,1.589l.567.681H1.135A1.072,1.072,0,0,0,0,7.944v4.539a1.072,1.072,0,0,0,1.135,1.135h.908l-.567.567a1.1,1.1,0,0,0,0,1.589l3.177,3.177a1.1,1.1,0,0,0,1.589,0l.567-.454v.794a1.072,1.072,0,0,0,1.135,1.135h3.4a1.072,1.072,0,0,0,1.135,1.135h1.362l-.908.908a1.1,1.1,0,0,0,0,1.589l1.589,1.589a1.1,1.1,0,0,0,1.589,0l.908-.908V26.1a1.072,1.072,0,0,0,1.135,1.135h2.27A1.072,1.072,0,0,0,21.561,26.1V24.739l.908.908a1.1,1.1,0,0,0,1.589,0l1.589-1.589a1.1,1.1,0,0,0,0-1.589l-.908-.908H26.1a1.072,1.072,0,0,0,1.135-1.135v-2.27A1.072,1.072,0,0,0,26.1,17.022ZM9.078,18.157V16.909a8.754,8.754,0,0,1-2.837-1.135l-.794.794L3.858,14.979l.794-.794a6.248,6.248,0,0,1-1.135-2.837H2.27V9.078H3.518A6.412,6.412,0,0,1,4.766,6.241l-.908-.908L5.447,3.745l.908.908A7.3,7.3,0,0,1,9.078,3.518V2.27h2.27V3.518a7.845,7.845,0,0,1,2.837,1.135l.908-.908,1.589,1.589-.908.908a5.776,5.776,0,0,1,1.135,2.837h1.248v2.27H16.909a5.826,5.826,0,0,1-1.135,2.724l.908.908-1.589,1.589-.908-.908a8.019,8.019,0,0,1-2.837,1.248v1.248ZM26.1,20.427H24.852a7.6,7.6,0,0,1-.794,2.043l.908.908-1.7,1.589-.908-.908a5.5,5.5,0,0,1-2.043.794V26.1h-2.27V24.852A7.6,7.6,0,0,1,16,24.058l-.908.908-1.475-1.7.908-.908a5.5,5.5,0,0,1-.794-2.043H12.483a1.072,1.072,0,0,0,1.135-1.135V18.27l.681.681a1.1,1.1,0,0,0,1.589,0h0v.34a3.4,3.4,0,1,0,3.4-3.4h-.34l-2.724,2.724,2.837-2.837a1.1,1.1,0,0,0,0-1.589l-.567-.567h.794a1.072,1.072,0,0,0,1.135-1.135v1.248a7.6,7.6,0,0,1,2.043.794l.908-.908,1.589,1.589-.908.908a5.5,5.5,0,0,1,.794,2.043H26.1Zm-9.078-1.135a2.27,2.27,0,1,1,2.27,2.27A2.276,2.276,0,0,1,17.022,19.292Z" transform="translate(0 0)"/></svg>