<svg xmlns="http://www.w3.org/2000/svg" width="16.321" height="16.321" viewBox="0 0 16.321 16.321"><defs><style>.a{fill:#fff;}</style></defs><path class="a" d="M16.155,9.161A1.17,1.17,0,0,0,14.99,10.19a6.043,6.043,0,0,1-5.829,4.8A5.767,5.767,0,0,1,6.7,14.437l.616-.613c.419-.4.683-.647.683-1.166a1.181,1.181,0,0,0-1.166-1.166h-3.5a1.156,1.156,0,0,0-1.166,1.166v3.5a1.159,1.159,0,0,0,1.166,1.166c.564,0,.8-.318,1.166-.692l.476-.474a8.082,8.082,0,0,0,4.188,1.167A8.442,8.442,0,0,0,17.321,10.4,1.161,1.161,0,0,0,16.155,9.161ZM3.332,8.131a6.044,6.044,0,0,1,5.829-4.8,5.766,5.766,0,0,1,2.465.551L11.01,4.5c-.419.4-.683.647-.683,1.166a1.181,1.181,0,0,0,1.166,1.166h3.5a1.156,1.156,0,0,0,1.166-1.166v-3.5A1.159,1.159,0,0,0,14.99,1c-.564,0-.8.318-1.166.692l-.476.474A8.082,8.082,0,0,0,9.161,1,8.442,8.442,0,0,0,1,7.923a1.171,1.171,0,0,0,2.332.209Z" transform="translate(-1 -1)"/></svg>