<svg xmlns="http://www.w3.org/2000/svg" width="118.855" height="91.994" viewBox="0 0 118.855 91.994"><defs><style>.a{fill:#1d1d1b;}</style></defs><path class="a" d="M98.109,0H7.716A7.726,7.726,0,0,0,0,7.716V62.265a7.726,7.726,0,0,0,7.716,7.716H98.109a7.726,7.726,0,0,0,7.716-7.716V7.716A7.726,7.726,0,0,0,98.109,0ZM7.716,6.614H98.109a1.1,1.1,0,0,1,1.1,1.1v9.407H6.614V7.716A1.1,1.1,0,0,1,7.716,6.614ZM98.109,63.367H7.716a1.1,1.1,0,0,1-1.1-1.1V30.357h92.6V62.265A1.1,1.1,0,0,1,98.109,63.367Z" transform="translate(0 23.806) rotate(-13)"/></svg>