<svg xmlns="http://www.w3.org/2000/svg" width="12.153" height="16.908" viewBox="0 0 12.153 16.908"><defs><style>.a{fill:#616569;}</style></defs><path class="a" d="M395.721,142.159l.42,1.909a.353.353,0,0,1-.036.27.378.378,0,0,1-.2.174l-.06.012a.581.581,0,0,1-.126.042q-.078.018-.192.054t-.258.066q-.144.03-.306.06t-.36.06q-.2.03-.4.054t-.438.036q-.234.012-.462.012a7.991,7.991,0,0,1-4.912-1.567,7.755,7.755,0,0,1-2.858-4.221h-1.141a.39.39,0,0,1-.384-.384v-1.357a.39.39,0,0,1,.384-.384h.793q-.024-.685.012-1.261h-.8a.37.37,0,0,1-.384-.384V133.98a.37.37,0,0,1,.384-.384h1.177a7.823,7.823,0,0,1,2.924-4.059,7.987,7.987,0,0,1,4.81-1.537,9.574,9.574,0,0,1,2.33.276.457.457,0,0,1,.24.18.4.4,0,0,1,.036.288l-.516,1.909a.352.352,0,0,1-.168.234.344.344,0,0,1-.288.03l-.048-.012q-.048-.012-.138-.03l-.21-.042-.27-.042-.312-.036-.348-.03-.354-.012a4.926,4.926,0,0,0-2.714.769,4.744,4.744,0,0,0-1.8,2.114h5.62a.394.394,0,0,1,.384.456l-.288,1.369a.351.351,0,0,1-.384.312H388.2a10.788,10.788,0,0,0,0,1.261h5.512a.375.375,0,0,1,.3.144.39.39,0,0,1,.072.324l-.288,1.345a.389.389,0,0,1-.372.312H388.78a4.835,4.835,0,0,0,4.539,3.05q.216,0,.432-.018t.4-.042q.186-.024.354-.054t.294-.06l.222-.054.144-.036.06-.024a.359.359,0,0,1,.312.024A.368.368,0,0,1,395.721,142.159Z" transform="translate(-384 -128)"/></svg>