<svg xmlns="http://www.w3.org/2000/svg" width="23.829" height="25" viewBox="0 0 23.829 25"><defs><style>.a{fill:#2a3477;}</style></defs><g transform="translate(-14.28 5.896)"><path class="a" d="M333.948,422.125H329.29c-.643,0-1.165,1.083-1.165,2.419v20.161c0,1.336.522,2.419,1.165,2.419h4.658c.643,0,1.165-1.083,1.165-2.419V424.544C335.112,423.208,334.591,422.125,333.948,422.125Z" transform="translate(-305.424 -428.021)"/><path class="a" d="M333.948,422.125H329.29c-.643,0-1.165.79-1.165,1.763v14.7c0,.974.522,1.764,1.165,1.764h4.658c.643,0,1.165-.79,1.165-1.764v-14.7C335.112,422.915,334.591,422.125,333.948,422.125Z" transform="translate(-313.845 -421.244)"/><path class="a" d="M333.948,422.125H329.29a1.25,1.25,0,0,0-1.165,1.321v11.007a1.25,1.25,0,0,0,1.165,1.321h4.658a1.25,1.25,0,0,0,1.165-1.321V423.446A1.25,1.25,0,0,0,333.948,422.125Z" transform="translate(-297.003 -416.67)"/></g></svg>