<svg xmlns="http://www.w3.org/2000/svg" width="24.724" height="25" viewBox="0 0 24.724 25"><defs><style>.a{fill:#fff;}</style></defs><g transform="translate(0 -17.841)"><g transform="translate(0 17.84)"><path class="a" d="M160.937,22.652l10.5-2.866-.556-1.124a1.479,1.479,0,0,0-1.981-.668l-9.4,4.658Z" transform="translate(-155.311 -17.84)"/><path class="a" d="M332.389,86.46a1.478,1.478,0,0,0-.39.053l-2.466.674L322,89.243h12.276l-.461-1.692A1.476,1.476,0,0,0,332.389,86.46Z" transform="translate(-313.569 -84.431)"/><path class="a" d="M21.824,215.56H1.385a1.349,1.349,0,0,0-1.081.556,1.521,1.521,0,0,0-.254.535,1.63,1.63,0,0,0-.05.387v16.475a1.434,1.434,0,0,0,1.383,1.479H21.821a1.434,1.434,0,0,0,1.383-1.479v-4.125H15a2.438,2.438,0,0,1-2.351-2.514v-3.288a2.6,2.6,0,0,1,.666-1.751,2.275,2.275,0,0,1,1.4-.742,2.185,2.185,0,0,1,.279-.018H23.2v-4.037A1.43,1.43,0,0,0,21.824,215.56Z" transform="translate(0 -209.992)"/><path class="a" d="M503.691,437.148a1.476,1.476,0,0,0-.518-.308,1.509,1.509,0,0,0-.479-.08h-8.816a1.479,1.479,0,0,0-1.479,1.479v3.291a1.479,1.479,0,0,0,1.479,1.479h8.816a1.507,1.507,0,0,0,.479-.08,1.434,1.434,0,0,0,.518-.308,1.473,1.473,0,0,0,.482-1.091V438.24A1.473,1.473,0,0,0,503.691,437.148Zm-6.725,3.031a.74.74,0,0,1-.739.739h-.491a.74.74,0,0,1-.739-.739v-.491a.725.725,0,0,1,.284-.58.747.747,0,0,1,.455-.16h.491a.74.74,0,0,1,.739.739v.491Z" transform="translate(-479.449 -424.554)"/></g></g></svg>